<?xml version="1.0" encoding="UTF-8" standalone="no"?>
<!-- Created with Inkscape (http://www.inkscape.org/) -->

<svg
   width="632"
   height="110"
   viewBox="0 0 167.21667 29.104167"
   version="1.1"
   id="svg5"
   xml:space="preserve"
   inkscape:version="1.2.2 (732a01da63, 2022-12-09)"
   sodipodi:docname="logo-livioalvarenga-light.svg"
   xmlns:inkscape="http://www.inkscape.org/namespaces/inkscape"
   xmlns:sodipodi="http://sodipodi.sourceforge.net/DTD/sodipodi-0.dtd"
   xmlns="http://www.w3.org/2000/svg"
   xmlns:svg="http://www.w3.org/2000/svg"><sodipodi:namedview
     id="namedview7"
     pagecolor="#000000"
     bordercolor="#000000"
     borderopacity="0.25"
     inkscape:showpageshadow="2"
     inkscape:pageopacity="0"
     inkscape:pagecheckerboard="0"
     inkscape:deskcolor="#d1d1d1"
     inkscape:document-units="mm"
     showgrid="false"
     inkscape:zoom="1"
     inkscape:cx="251"
     inkscape:cy="-124"
     inkscape:window-width="1920"
     inkscape:window-height="1017"
     inkscape:window-x="-8"
     inkscape:window-y="-8"
     inkscape:window-maximized="1"
     inkscape:current-layer="layer1" /><defs
     id="defs2" /><g
     inkscape:label="Camada 1"
     inkscape:groupmode="layer"
     id="layer1"
     transform="translate(-72.56736,-158.82531)"><rect
       style="fill:#ffffff;fill-opacity:0;fill-rule:evenodd;stroke-width:0.264999"
       id="rect358"
       width="167.21667"
       height="29.104166"
       x="72.56736"
       y="158.82532" /><g
       id="g1038"><text
         xml:space="preserve"
         style="font-weight:bold;font-size:9.525px;font-family:Poppins;-inkscape-font-specification:'Poppins Bold';letter-spacing:1.85208px;fill:#f5f5f5;fill-opacity:1;fill-rule:evenodd;stroke-width:0.264999"
         x="121.70968"
         y="173.16129"
         id="text1951"
         inkscape:label="LivioAlvarenga"><tspan
           sodipodi:role="line"
           id="tspan1949"
           style="font-style:normal;font-variant:normal;font-weight:bold;font-stretch:normal;font-size:9.525px;font-family:'Roboto Black';-inkscape-font-specification:'Roboto Black,  Bold';fill:#f5f5f5;fill-opacity:1;stroke-width:0.265"
           x="121.70968"
           y="173.16129">LIVIO ALVARENGA</tspan></text><text
         xml:space="preserve"
         style="font-style:normal;font-variant:normal;font-weight:bold;font-stretch:normal;font-size:5.29167px;font-family:Lato;-inkscape-font-specification:'Lato Bold';letter-spacing:2.91042px;fill:#26a9e0;fill-opacity:1;fill-rule:evenodd;stroke-width:0.264999"
         x="121.83583"
         y="180.59885"
         id="text402"
         inkscape:label="Eng-DEV"><tspan
           sodipodi:role="line"
           id="tspan400"
           style="font-size:5.29167px;fill:#26a9e0;fill-opacity:1;stroke-width:0.265"
           x="121.83583"
           y="180.59885">Engenheiro - DEV</tspan></text></g><g
       id="g946"><path
         style="fill:#f5f5f5;stroke-width:4.82618;fill-opacity:1"
         d="m 80.797528,171.44661 c -0.718428,-0.26404 -6.909678,-3.72181 -13.758334,-7.68395 -6.848655,-3.96213 -13.166475,-7.6068 -14.0396,-8.09928 -0.873125,-0.49247 -4.1275,-2.38515 -7.231944,-4.20594 C 42.663205,149.63664 33.154891,144.1026 24.638063,139.15956 8.2790012,129.66501 6.8393955,128.64074 5.1264602,125.27711 c -1.2616785,-2.4775 -1.3000138,-6.03868 -0.091955,-8.54219 1.4349005,-2.9736 3.5010116,-4.55414 13.7770638,-10.53921 5.318483,-3.09764 13.083094,-7.629274 17.254691,-10.070306 4.171598,-2.441032 9.807223,-5.723718 12.523612,-7.294858 2.716389,-1.571141 10.471147,-6.06314 17.2328,-9.982221 15.26104,-8.845365 15.201146,-8.816856 18.533217,-8.821264 3.464725,-0.0046 5.063278,0.528577 7.114642,2.37293 2.520171,2.265848 3.68832,4.873044 3.677123,8.206957 -0.01313,3.906569 -1.590044,6.641217 -5.28278,9.161243 -1.902323,1.298198 -31.715204,18.731479 -46.037502,26.920729 -3.395486,1.94149 -6.389574,3.72892 -6.653528,3.97207 -0.564226,0.51976 -2.556817,-0.69568 25.703529,15.67865 28.133044,16.30058 27.452081,15.89109 29.130262,17.51696 2.390222,2.31573 3.117078,4.03219 3.116714,7.36007 -2.57e-4,2.35247 -0.160884,3.15465 -0.965023,4.81942 -1.08475,2.2457 -3.130152,4.27477 -5.304452,5.26209 -1.757027,0.79784 -6.073951,0.87736 -8.057346,0.14843 z"
         id="path304"
         transform="matrix(0.20720307,0,0,0.20720307,75.258818,148.76862)" /><path
         style="fill:#26a9e0;fill-opacity:1;stroke-width:4.82618"
         d="m 127.43571,168.27665 c 0,-0.29024 1.71889,-1.30443 32.28254,-19.04749 16.29648,-9.46056 30.50309,-17.79056 31.57024,-18.5111 6.92759,-4.67755 7.89683,-12.39114 2.22377,-17.69763 -1.95913,-1.83253 -2.29316,-2.03232 -38.55988,-23.06358 -14.6491,-8.495085 -26.94786,-15.661576 -27.33058,-15.925534 -0.63007,-0.434549 -0.53001,-0.482272 1.05833,-0.504764 5.99182,-0.08485 76.47999,0.02054 76.57394,0.114492 0.1077,0.107706 0.20171,46.251496 0.16277,79.902706 l -0.0172,14.90486 h -38.98195 c -21.44007,0 -38.98194,-0.0774 -38.98194,-0.17196 z m -16.22778,-47.2418 c 0,-16.80257 0.059,-30.550125 0.13116,-30.550125 0.18998,0 4.45532,2.459349 25.9744,14.976565 28.9786,16.85627 26.58471,15.38549 25.85425,15.88455 -0.34685,0.23698 -11.58805,6.78864 -24.98045,14.55926 -13.39239,7.77062 -24.94145,14.47748 -25.66458,14.90413 l -1.31478,0.77574 z"
         id="path306"
         transform="matrix(0.20720307,0,0,0.20720307,75.258818,148.76862)" /></g></g></svg>
